<?xml version="1.0" encoding="UTF-8"?>
<svg id="Layer_1" data-name="Layer 1" xmlns="http://www.w3.org/2000/svg" viewBox="0 0 34.74 45.43">
  <defs>
    <style>
      .cls-1 {
        fill-rule: evenodd;
      }
    </style>
  </defs>
  <path class="cls-1" d="M34.7,8.52c.1.12-.02.11-.1.05-1.04-.82-2.05-1.39-3.52-1.54-1.49-.15-2.86.38-4.07.89-1.13.48-2.36,1.1-3.72,1.34-1.48.26-2.8-.1-4.07-.74v23.47c0,2.77.21,5.32-.65,7.15-.58,1.24-1.51,2.41-2.53,3.37-1.92,1.8-5.07,3.33-8.78,2.83-2.42-.32-4.24-1.35-5.56-2.88-.39-.46-.84-.97-1.09-1.49-.91-1.85-.72-4.4,0-6.1.72-1.7,1.99-3.06,3.28-4.02,1.35-1.01,3.22-1.81,5.21-2.08,2.26-.31,4.22.18,6.05.99V2.56c0-1.52.07-2.35,1.34-2.53,1.65-.24,2.35,1.02,3.28,1.69.79.57,1.56.92,2.73.94,1.21.03,2.21-.2,3.23-.45,1.48-.37,3.69-.94,5.21-.1,2.15,1.19,3.25,3.6,3.77,6.4Z"/>
</svg>